<mxfile host="app.diagrams.net" modified="2023-11-26T14:14:27.665Z" agent="Mozilla/5.0 (Windows NT 10.0; Win64; x64) AppleWebKit/537.36 (KHTML, like Gecko) Chrome/118.0.0.0 Safari/537.36 OPR/104.0.0.0 (Edition std-1)" etag="_b3OqhfU2W9H2KG-HdHy" version="22.1.4" type="github">
  <diagram name="Seite-1" id="BZ_D0VqPTJqDP9_OEPn7">
    <mxGraphModel dx="1009" dy="542" grid="1" gridSize="10" guides="1" tooltips="1" connect="1" arrows="1" fold="1" page="1" pageScale="1" pageWidth="827" pageHeight="1169" math="0" shadow="0">
      <root>
        <mxCell id="0" />
        <mxCell id="1" parent="0" />
        <mxCell id="hAdG_ISzVW26Wn73G3Gn-1" value="Terminal-Block" style="whiteSpace=wrap;html=1;fillColor=none;verticalAlign=top;" vertex="1" parent="1">
          <mxGeometry x="214.5" y="155" width="483" height="263" as="geometry" />
        </mxCell>
        <mxCell id="hAdG_ISzVW26Wn73G3Gn-4" value="Spieler" style="shape=umlActor;verticalLabelPosition=bottom;labelBackgroundColor=#ffffff;verticalAlign=top;html=1;fillColor=none;" vertex="1" parent="1">
          <mxGeometry x="83" y="293" width="30" height="60" as="geometry" />
        </mxCell>
        <mxCell id="hAdG_ISzVW26Wn73G3Gn-5" value="Mit dem Computer wÃ¤hrend Laufzeit kommunizieren" style="ellipse;whiteSpace=wrap;html=1;fillColor=#008e74;fontColor=#FFFFFF;" vertex="1" parent="1">
          <mxGeometry x="233" y="288.5" width="160" height="40" as="geometry" />
        </mxCell>
        <mxCell id="hAdG_ISzVW26Wn73G3Gn-11" style="edgeStyle=orthogonalEdgeStyle;orthogonalLoop=1;jettySize=auto;html=1;endArrow=none;endFill=0;rounded=1;" edge="1" parent="1" source="hAdG_ISzVW26Wn73G3Gn-4" target="hAdG_ISzVW26Wn73G3Gn-5">
          <mxGeometry relative="1" as="geometry">
            <Array as="points">
              <mxPoint x="170.5" y="329" />
              <mxPoint x="170.5" y="309" />
            </Array>
            <mxPoint x="82.5" y="338.68965517241384" as="sourcePoint" />
            <mxPoint x="383.2931034482758" y="229.72413793103453" as="targetPoint" />
          </mxGeometry>
        </mxCell>
      </root>
    </mxGraphModel>
  </diagram>
</mxfile>
